<svg width="21" height="30" viewBox="0 0 21 30" fill="none" xmlns="http://www.w3.org/2000/svg">
<path d="M5.95 27.825C5.95 28.5375 6.52 29.25 7.375 29.25H13.075C13.93 29.25 14.5 28.5375 14.5 27.825V26.4H5.95V27.825ZM10.225 0.75C4.6675 0.75 0.25 5.1675 0.25 10.725C0.25 14.145 1.96 17.1375 4.525 18.8475V22.125C4.525 22.8375 5.095 23.55 5.95 23.55H14.5C15.355 23.55 15.925 22.8375 15.925 22.125V18.8475C18.49 16.995 20.2 14.0025 20.2 10.725C20.2 5.1675 15.7825 0.75 10.225 0.75Z" fill="#1F242C"/>
</svg>
