<svg width="28" height="29" viewBox="0 0 28 29" fill="none" xmlns="http://www.w3.org/2000/svg">
<path d="M24.697 15.8032C24.7546 15.3427 24.7977 14.8821 24.7977 14.3927C24.7977 13.9034 24.7546 13.4428 24.697 12.9823L27.7339 10.6075C28.0073 10.3916 28.0793 10.003 27.9066 9.68632L25.028 4.70643C24.8553 4.38979 24.4667 4.27465 24.1501 4.38979L20.5663 5.82906C19.8178 5.25335 19.0119 4.77839 18.1339 4.41857L17.587 0.604495C17.5438 0.25907 17.2415 0 16.8817 0H11.1246C10.7648 0 10.4626 0.25907 10.4194 0.604495L9.87246 4.41857C8.9945 4.77839 8.18851 5.26774 7.44009 5.82906L3.85629 4.38979C3.52526 4.26025 3.15105 4.38979 2.97834 4.70643L0.0997871 9.68632C-0.0873185 10.003 -0.00096187 10.3916 0.2725 10.6075L3.30937 12.9823C3.2518 13.4428 3.20862 13.9178 3.20862 14.3927C3.20862 14.8677 3.2518 15.3427 3.30937 15.8032L0.2725 18.178C-0.00096187 18.3939 -0.0729258 18.7825 0.0997871 19.0992L2.97834 24.0791C3.15105 24.3957 3.53965 24.5108 3.85629 24.3957L7.44009 22.9564C8.18851 23.5321 8.9945 24.0071 9.87246 24.3669L10.4194 28.181C10.4626 28.5264 10.7648 28.7855 11.1246 28.7855H16.8817C17.2415 28.7855 17.5438 28.5264 17.587 28.181L18.1339 24.3669C19.0119 24.0071 19.8178 23.5177 20.5663 22.9564L24.1501 24.3957C24.4811 24.5252 24.8553 24.3957 25.028 24.0791L27.9066 19.0992C28.0793 18.7825 28.0073 18.3939 27.7339 18.178L24.697 15.8032ZM14.0032 19.4302C11.2254 19.4302 8.96572 17.1705 8.96572 14.3927C8.96572 11.6149 11.2254 9.35528 14.0032 9.35528C16.781 9.35528 19.0406 11.6149 19.0406 14.3927C19.0406 17.1705 16.781 19.4302 14.0032 19.4302Z" fill="#80858D"/>
</svg>
