<svg width="28" height="35" viewBox="0 0 28 35" fill="none" xmlns="http://www.w3.org/2000/svg">
<path d="M13.692 6.84597C15.5825 6.84597 17.115 5.31344 17.115 3.42298C17.115 1.53252 15.5825 0 13.692 0C11.8016 0 10.269 1.53252 10.269 3.42298C10.269 5.31344 11.8016 6.84597 13.692 6.84597Z" fill="#80858D"/>
<path d="M20.3496 10.4572C19.6822 9.78973 18.5354 8.55746 16.3105 8.55746C15.9511 8.55746 13.8802 8.55746 11.9633 8.55746C7.25672 8.54034 3.42298 4.7066 3.42298 0H0C0 5.40831 3.61125 9.99511 8.55746 11.4841V34.2298H11.9804V23.9609H15.4034V34.2298H18.8264V13.7775L25.5868 20.5379L28 18.1247L20.3496 10.4572Z" fill="#80858D"/>
</svg>
